# xmcd
#
# Track frame offsets: 
#        150
#        31225
#        60287
#        84830
#        105955
#        133772
#        156562
#        178435
#        198242
#        223537
#        251925
#
# Disc length: 3748 seconds
#
# Revision: 0
# Processed by: cddbd v1.5.2PL0 Copyright (c) Steve Scherf et al.
# Submitted via: ExactAudioCopy v1.0b3
#
DISCID=950ea20b
DTITLE=Hank Jones -  Favors
DYEAR=1900
DGENRE=
TTITLE0=01 - Love for Sale
TTITLE1=02 - Favors
TTITLE2=03 - Passing Time
TTITLE3=04 - Comin' Home Baby
TTITLE4=05 - Interface
TTITLE5=06 - Speak Low
TTITLE6=07 - On Green Dolphin Street
TTITLE7=08 - I Got It Bad (And That Ain't Good)
TTITLE8=09 - How High the Moon
TTITLE9=10 - A Child Is Born
TTITLE10=11 - Armageddon
EXTD=
EXTT0=
EXTT1=
EXTT2=
EXTT3=
EXTT4=
EXTT5=
EXTT6=
EXTT7=
EXTT8=
EXTT9=
EXTT10=
PLAYORDER=
